<?xml version="1.0" standalone="no"?>
<!DOCTYPE svg PUBLIC "-//W3C//DTD SVG 20010904//EN"
 "http://www.w3.org/TR/2001/REC-SVG-20010904/DTD/svg10.dtd">
<svg version="1.0" xmlns="http://www.w3.org/2000/svg"
 width="451.000000pt" height="451.000000pt" viewBox="0 0 451.000000 451.000000"
 preserveAspectRatio="xMidYMid meet">
<metadata>
Created by potrace 1.14, written by Peter Selinger 2001-2017
</metadata>
<g transform="translate(0.000000,451.000000) scale(0.100000,-0.100000)"
fill="#000000" stroke="none">
<path d="M2035 4226 c-49 -7 -97 -15 -105 -18 -8 -4 -33 -9 -55 -13 -22 -4
-53 -13 -70 -20 -16 -8 -49 -19 -72 -25 -78 -20 -265 -121 -331 -177 -60 -53
-168 -177 -189 -218 -6 -11 -16 -45 -23 -75 -7 -30 -16 -59 -19 -65 -15 -21 9
-487 34 -685 11 -80 47 -613 46 -679 0 -35 -4 -68 -10 -74 -13 -13 -95 -42
-146 -51 -22 -4 -44 -11 -50 -15 -5 -5 -39 -14 -75 -21 -36 -8 -76 -20 -90
-27 -14 -7 -31 -13 -38 -13 -14 0 -90 -29 -158 -61 -23 -10 -45 -19 -50 -19
-9 0 -101 -34 -149 -56 -16 -7 -48 -19 -70 -26 -22 -7 -89 -40 -148 -73 -59
-33 -121 -67 -138 -77 -17 -9 -53 -35 -80 -58 l-49 -41 0 -125 c0 -76 4 -124
10 -124 6 0 10 -7 10 -16 0 -17 233 -254 250 -254 6 0 35 -18 65 -40 30 -22
57 -40 60 -40 3 0 30 -18 60 -40 30 -22 57 -40 61 -40 4 0 15 -6 23 -14 9 -8
57 -36 106 -63 50 -27 99 -54 110 -60 43 -24 90 -41 97 -37 4 3 8 -1 8 -8 1
-13 65 -48 88 -48 7 0 12 -3 12 -8 0 -4 15 -13 33 -21 17 -7 52 -23 77 -34 25
-12 50 -22 55 -22 6 0 26 -7 45 -16 68 -31 91 -39 117 -39 15 0 24 3 21 6 -4
3 0 21 8 40 15 36 13 38 -33 37 -19 -1 -16 11 7 32 20 18 18 38 -3 33 -7 -2
-12 2 -12 7 0 6 7 10 15 9 10 0 15 8 14 25 -1 15 3 34 8 45 7 13 7 16 -1 11
-21 -12 1 48 23 67 17 14 17 17 4 12 -10 -3 -18 -1 -18 5 0 7 -8 7 -26 1 -32
-13 -43 -13 -24 0 35 23 -86 5 -145 -21 -23 -10 -49 -13 -85 -10 -19 2 -13 6
25 17 28 8 72 22 100 30 52 17 133 34 175 37 14 1 29 11 35 23 6 12 17 30 25
40 8 10 10 15 3 11 -9 -6 -10 2 -6 28 5 32 3 35 -18 36 -13 0 -35 2 -49 4 -57
8 -107 8 -135 1 -22 -6 -26 -5 -15 3 11 8 0 11 -45 12 l-60 1 60 14 c42 11 66
12 82 5 12 -6 24 -7 27 -2 7 11 154 13 174 2 16 -8 55 2 42 11 -45 29 -65 33
-182 36 -83 3 -126 8 -122 14 4 6 0 15 -7 20 -10 7 -6 8 11 3 14 -4 63 -11
110 -16 47 -4 115 -11 153 -15 42 -4 67 -3 67 3 0 10 -54 29 -100 36 -17 3
-12 5 13 6 40 1 51 14 15 19 -13 1 -57 6 -98 10 l-75 9 61 1 c34 1 85 -3 114
-8 48 -9 84 -4 53 7 -21 7 -15 23 8 23 14 0 19 5 17 17 -3 17 -16 25 -88 57
-51 23 -14 19 48 -4 l52 -20 10 26 c6 15 8 35 5 45 -9 28 41 26 56 -3 10 -18
9 -20 -4 -15 -19 7 -31 -23 -22 -52 7 -23 84 -71 113 -71 30 0 52 -11 52 -25
0 -7 8 -16 17 -19 10 -4 14 -4 11 0 -4 3 2 14 13 23 11 9 25 27 32 41 7 14 21
24 31 24 10 -1 32 18 54 47 35 48 69 71 38 27 -25 -35 -20 -100 9 -132 13 -14
33 -26 44 -26 11 0 34 -12 51 -26 17 -15 52 -31 77 -35 41 -8 49 -6 89 22 24
16 51 43 59 59 9 17 35 40 63 54 63 32 79 68 56 126 -14 35 -25 45 -72 66 -46
20 -53 26 -42 39 16 19 30 19 30 0 0 -9 6 -12 16 -8 9 3 19 2 23 -3 6 -10 27
-23 76 -50 16 -9 50 -17 75 -17 25 -1 47 -4 50 -8 3 -4 18 -11 33 -14 21 -6
27 -4 27 9 0 16 38 42 48 32 3 -3 0 -6 -6 -6 -7 0 -12 -4 -12 -10 0 -15 26
-12 39 4 9 11 9 15 0 18 -7 2 9 17 35 32 55 32 72 27 33 -10 -15 -14 -27 -28
-27 -31 0 -3 9 2 20 12 17 15 20 16 25 3 4 -9 -6 -28 -24 -46 -17 -17 -31 -35
-31 -41 0 -14 -1 -14 48 9 28 14 42 27 42 40 0 11 6 20 14 20 12 0 30 39 23
47 -2 1 -16 -4 -31 -12 -34 -18 -53 -10 -32 14 9 10 14 20 11 23 -6 6 70 58
85 58 6 0 8 -5 5 -10 -3 -6 1 -10 9 -10 10 0 15 8 13 22 -1 13 4 23 11 23 6 0
11 3 10 6 -2 4 16 27 40 53 24 26 41 52 39 59 -2 7 -22 12 -44 12 -35 0 -39 2
-35 22 3 14 18 27 41 37 34 14 37 13 50 -5 19 -26 27 -24 62 16 38 43 61 47
25 4 -31 -37 -34 -59 -6 -52 15 4 20 0 20 -16 0 -25 27 -28 45 -5 11 15 12 15
12 0 0 -9 -4 -16 -8 -16 -4 0 -10 -7 -13 -16 -4 -10 5 -27 23 -46 24 -24 36
-30 60 -26 36 5 40 -2 10 -20 -16 -11 -18 -16 -9 -28 7 -8 24 -14 39 -14 l26
-1 -21 -17 -21 -18 23 -17 c13 -9 29 -17 36 -17 8 0 24 -9 36 -20 11 -11 28
-17 36 -14 21 8 74 -5 59 -14 -8 -5 -7 -13 3 -27 13 -17 16 -18 24 -5 8 12 10
12 16 -3 3 -9 17 -17 30 -17 13 0 24 -5 24 -11 0 -7 11 -8 30 -4 27 6 30 4 30
-19 0 -14 5 -26 10 -26 6 0 10 -6 10 -13 0 -21 24 -67 35 -67 6 0 3 -5 -5 -10
-11 -7 -6 -8 17 -4 25 5 34 2 44 -14 7 -12 19 -18 28 -15 12 5 13 3 5 -7 -9
-9 -8 -20 5 -43 9 -18 19 -34 24 -35 4 -2 5 -8 1 -13 -3 -5 1 -12 10 -15 8 -3
13 -11 10 -18 -3 -7 3 -22 13 -33 10 -12 27 -32 37 -44 21 -26 24 -77 4 -91
-9 -7 -7 -8 9 -5 16 3 23 -1 27 -17 3 -11 1 -22 -4 -24 -6 -2 -10 -8 -10 -14
0 -6 7 -7 16 -4 13 5 14 4 6 -7 -8 -10 -8 -17 -1 -24 8 -8 8 -13 0 -17 -6 -4
-11 -16 -11 -26 0 -10 -6 -21 -12 -24 -7 -3 0 -2 17 1 40 9 293 180 374 254
36 33 80 78 96 99 111 143 137 180 160 223 l25 48 0 482 0 482 -48 27 c-75 42
-222 87 -306 95 -42 3 -79 10 -82 14 -3 5 -149 9 -324 9 -184 0 -321 4 -325 9
-3 5 -10 47 -16 93 -6 46 -15 88 -19 93 -4 6 -13 57 -20 115 -7 58 -17 112
-21 121 -5 9 -13 58 -19 110 -6 52 -15 103 -20 114 -5 11 -9 27 -9 35 -2 43
-24 166 -32 176 -4 5 -6 20 -2 32 3 12 1 28 -5 35 -5 6 -12 29 -16 49 -4 20
-38 98 -76 173 -37 76 -71 149 -75 163 -7 30 -129 159 -199 210 -78 57 -158
98 -256 132 -19 7 -44 16 -55 20 -63 27 -390 36 -550 16z m1295 -2606 c-8 -5
-26 -9 -40 -9 -23 1 -23 2 5 9 43 11 52 11 35 0z m-1705 -68 c18 -13 11 -37
-12 -40 -25 -4 -32 -37 -10 -45 6 -2 9 -7 6 -10 -7 -9 -69 15 -69 26 0 14 52
77 64 77 6 0 16 -4 21 -8z m45 -2 c0 -5 -4 -10 -10 -10 -5 0 -10 5 -10 10 0 6
5 10 10 10 6 0 10 -4 10 -10z m-158 -22 c-9 -9 -15 -9 -24 0 -9 9 -7 12 12 12
19 0 21 -3 12 -12z m1845 6 c-3 -3 -12 -4 -19 -1 -8 3 -5 6 6 6 11 1 17 -2 13
-5z m213 -44 c21 -29 21 -30 2 -30 -11 0 -22 7 -26 15 -3 8 -12 15 -21 15 -13
0 -14 3 -3 15 18 20 24 19 48 -15z m-1570 11 c0 -5 -12 -16 -26 -26 -15 -9
-24 -13 -22 -9 3 5 8 17 11 27 6 17 37 24 37 8z m1490 -1 c0 -5 -4 -10 -10
-10 -5 0 -10 5 -10 10 0 6 5 10 10 10 6 0 10 -4 10 -10z m-2297 -57 c-7 -2
-19 -2 -25 0 -7 3 -2 5 12 5 14 0 19 -2 13 -5z m64 -9 c-3 -3 -12 -4 -19 -1
-8 3 -5 6 6 6 11 1 17 -2 13 -5z m56 -21 c-7 -2 -19 -2 -25 0 -7 3 -2 5 12 5
14 0 19 -2 13 -5z m54 -9 c-3 -3 -12 -4 -19 -1 -8 3 -5 6 6 6 11 1 17 -2 13
-5z m-184 -31 c-13 -2 -33 -2 -45 0 -13 2 -3 4 22 4 25 0 35 -2 23 -4z m537
-3 c0 -5 -2 -10 -4 -10 -3 0 -8 5 -11 10 -3 6 -1 10 4 10 6 0 11 -4 11 -10z
m-353 -36 c-3 -3 -12 -4 -19 -1 -8 3 -5 6 6 6 11 1 17 -2 13 -5z m46 -11 c-7
-2 -19 -2 -25 0 -7 3 -2 5 12 5 14 0 19 -2 13 -5z m367 -12 c0 -12 -20 -25
-27 -18 -7 7 6 27 18 27 5 0 9 -4 9 -9z m-613 -17 c-3 -3 -12 -4 -19 -1 -8 3
-5 6 6 6 11 1 17 -2 13 -5z m176 -41 c-13 -2 -35 -2 -50 0 -16 2 -5 4 22 4 28
0 40 -2 28 -4z m-260 -20 c-13 -2 -35 -2 -50 0 -16 2 -5 4 22 4 28 0 40 -2 28
-4z m30 -30 c-7 -2 -19 -2 -25 0 -7 3 -2 5 12 5 14 0 19 -2 13 -5z m-96 -79
c-3 -3 -12 -4 -19 -1 -8 3 -5 6 6 6 11 1 17 -2 13 -5z m32 -248 c-2 -2 -15 -9
-29 -16 -23 -12 -24 -12 -11 3 7 10 20 17 29 17 8 0 13 -2 11 -4z m-89 -40 c0
-3 -4 -8 -10 -11 -5 -3 -10 -1 -10 4 0 6 5 11 10 11 6 0 10 -2 10 -4z m210
-166 c0 -5 -7 -10 -16 -10 -8 0 -12 5 -9 10 3 6 10 10 16 10 5 0 9 -4 9 -10z"/>
<path d="M2979 1720 c-20 -11 -40 -29 -44 -42 -4 -13 -8 -26 -10 -30 -1 -5 -3
-15 -4 -23 0 -8 -7 -15 -14 -15 -8 0 -23 -10 -34 -22 -26 -30 -65 -99 -59
-105 2 -3 34 9 69 26 36 17 68 31 71 31 3 0 28 16 55 35 26 19 56 35 65 35 20
0 20 8 1 54 -15 35 -18 37 -48 30 -28 -6 -30 -5 -18 9 22 28 8 36 -30 17z m7
-48 c-8 -13 -46 -22 -46 -11 0 10 42 30 49 23 1 -1 0 -7 -3 -12z"/>
<path d="M3065 1590 c-16 -11 -30 -25 -30 -32 0 -6 -12 -15 -28 -19 -15 -4
-51 -19 -79 -33 -29 -14 -57 -26 -63 -26 -6 0 -21 -14 -34 -31 -12 -16 -33
-35 -47 -41 -36 -17 -29 -28 11 -15 19 6 35 14 35 19 0 4 7 8 15 8 8 0 23 4
33 9 9 6 40 20 67 33 28 13 55 28 60 34 6 7 21 15 35 19 25 8 25 7 7 -13 -18
-20 -18 -21 5 -16 26 5 31 8 -69 -37 -24 -10 -43 -23 -43 -29 0 -15 56 -12 69
3 6 8 30 19 53 27 24 7 52 18 63 26 19 14 19 14 -5 15 -21 1 -19 3 10 11 47
13 68 34 52 50 -10 10 -17 10 -33 0 -25 -16 -36 -10 -15 7 13 11 13 15 -2 32
-21 24 -30 24 -67 -1z"/>
<path d="M2725 1410 c-3 -5 -1 -10 4 -10 6 0 11 5 11 10 0 6 -2 10 -4 10 -3 0
-8 -4 -11 -10z"/>
<path d="M2805 1375 c-25 -11 -27 -14 -9 -14 12 -1 27 6 34 14 15 18 14 18
-25 0z"/>
<path d="M1558 1301 c-23 -8 -12 -23 39 -49 48 -24 93 -35 93 -22 0 14 -60 60
-79 60 -9 0 -21 4 -26 9 -6 5 -18 6 -27 2z"/>
<path d="M2903 1302 c-12 -2 -27 -10 -33 -18 -10 -12 -7 -14 19 -14 19 0 34 6
38 15 7 19 4 22 -24 17z"/>
<path d="M1542 1230 c2 -8 20 -18 39 -23 19 -5 40 -14 47 -19 14 -13 30 -2 16
11 -5 4 -22 13 -39 19 -16 5 -38 13 -49 18 -14 5 -17 3 -14 -6z"/>
<path d="M1520 1200 c0 -5 5 -10 11 -10 5 0 7 5 4 10 -3 6 -8 10 -11 10 -2 0
-4 -4 -4 -10z"/>
<path d="M1564 1185 c22 -17 46 -20 46 -6 0 10 -25 21 -48 21 -15 -1 -14 -3 2
-15z"/>
<path d="M2160 1081 c0 -7 -12 -24 -27 -38 l-28 -25 27 16 c16 9 49 16 80 16
45 0 50 2 38 14 -20 19 -90 32 -90 17z"/>
<path d="M4390 879 c0 -5 -11 -7 -25 -3 -17 4 -33 -1 -51 -15 -27 -22 -60 -29
-49 -11 3 6 3 10 -2 10 -14 -1 -43 -27 -43 -38 0 -6 -5 -14 -11 -18 -8 -4 -9
1 -4 15 l7 22 -36 -23 c-20 -13 -36 -28 -36 -35 0 -8 -9 -9 -32 -3 -25 8 -34
6 -43 -7 -7 -10 -11 -24 -8 -33 4 -12 3 -12 -5 -1 -7 10 -14 11 -31 2 -11 -6
-20 -15 -20 -19 3 -21 -3 -32 -17 -32 -11 0 -14 5 -10 16 4 10 1 14 -6 12 -7
-3 -15 -13 -16 -24 -6 -29 -20 -40 -34 -26 -15 15 -51 15 -66 0 -9 -9 -12 -8
-12 4 0 9 -7 19 -16 22 -8 3 -12 10 -9 16 8 13 -5 13 -25 0 -8 -5 -15 -17 -15
-27 0 -10 -15 -25 -35 -35 l-35 -16 45 3 c25 3 36 2 25 -1 -51 -13 -86 -44
-50 -44 8 0 15 -4 15 -10 0 -15 -47 -12 -53 3 -3 9 -8 9 -17 1 -9 -9 -9 -17 0
-33 28 -53 -29 -140 -101 -155 -42 -8 -56 -25 -51 -60 4 -30 4 -30 -12 -11
-13 17 -15 18 -16 3 0 -9 5 -20 10 -23 18 -11 10 -23 -34 -48 -39 -21 -44 -22
-54 -8 -8 12 -10 3 -8 -39 2 -31 -2 -58 -8 -62 -7 -5 -5 -8 5 -8 18 0 36 -33
21 -38 -5 -1 -18 -9 -28 -17 -17 -13 -17 -14 -2 -15 9 0 20 4 23 10 3 5 12 10
18 10 7 0 -1 -12 -17 -26 -27 -23 -31 -24 -41 -10 -7 9 -15 13 -18 9 -9 -9 12
-33 29 -33 8 0 11 -6 8 -15 -5 -13 60 -15 555 -15 l561 0 0 421 c0 323 -3 423
-12 433 -16 15 -60 16 -70 2 -5 -7 -8 -5 -8 5 0 9 -7 19 -15 23 -8 3 -15 1
-15 -5z m-35 -29 c-3 -5 -10 -10 -16 -10 -5 0 -9 5 -9 10 0 6 7 10 16 10 8 0
12 -4 9 -10z m-245 -89 c0 -13 -28 -22 -35 -11 -3 4 1 11 7 13 20 8 28 8 28
-2z m-305 -151 c-3 -5 -11 -10 -16 -10 -6 0 -7 5 -4 10 3 6 11 10 16 10 6 0 7
-4 4 -10z m-85 -54 c0 -3 -4 -8 -10 -11 -5 -3 -10 -1 -10 4 0 6 5 11 10 11 6
0 10 -2 10 -4z"/>
<path d="M1306 693 c-6 -14 -5 -15 5 -6 7 7 10 15 7 18 -3 3 -9 -2 -12 -12z"/>
<path d="M3855 700 c3 -5 8 -10 11 -10 2 0 4 5 4 10 0 6 -5 10 -11 10 -5 0 -7
-4 -4 -10z"/>
<path d="M3670 615 c-11 -13 -10 -14 4 -9 9 3 16 10 16 15 0 13 -6 11 -20 -6z"/>
<path d="M3445 274 c-20 -15 -12 -17 19 -5 11 4 15 10 10 13 -5 4 -18 0 -29
-8z"/>
<path d="M1277 253 c-16 -4 -15 -7 8 -25 14 -10 25 -28 25 -39 0 -12 7 -19 19
-19 28 0 35 -17 11 -25 -29 -9 -15 -25 23 -25 18 0 52 -7 76 -16 24 -8 46 -13
48 -10 9 9 -6 54 -23 71 -13 13 -14 18 -3 31 7 8 8 14 3 13 -21 -4 -26 2 -13
18 12 14 12 15 0 9 -7 -5 -16 -4 -20 1 -7 11 -126 23 -154 16z"/>
<path d="M1568 92 c-19 -4 -24 -17 -9 -26 5 -3 14 1 21 9 15 18 12 23 -12 17z"/>
</g>
</svg>
